<svg width="30" height="28" viewBox="0 0 30 28" fill="none" xmlns="http://www.w3.org/2000/svg">
<path d="M20.5238 26.6931H19.7078C19.7078 26.8429 19.75 26.9898 19.8297 27.1173C19.9093 27.2448 20.0233 27.3478 20.1589 27.4148C20.2944 27.4818 20.4462 27.5102 20.5971 27.4967C20.748 27.4833 20.8922 27.4285 21.0134 27.3386L20.5238 26.6931ZM23.7879 24.2724L24.2775 23.6269C24.1362 23.5221 23.9644 23.4655 23.7879 23.4655C23.6113 23.4655 23.4395 23.5221 23.2983 23.6269L23.7879 24.2724ZM27.052 26.6931L26.5623 27.3386C26.6836 27.4285 26.8277 27.4833 26.9787 27.4967C27.1296 27.5102 27.2813 27.4818 27.4169 27.4148C27.5524 27.3478 27.6664 27.2448 27.7461 27.1173C27.8258 26.9898 27.868 26.8429 27.868 26.6931H27.052ZM23.7879 21.0448C22.7058 21.0448 21.668 20.6197 20.9028 19.8631C20.1377 19.1065 19.7078 18.0803 19.7078 17.0103H18.0758C18.0758 18.5083 18.6776 19.945 19.7488 21.0042C20.82 22.0635 22.2729 22.6586 23.7879 22.6586V21.0448ZM27.868 17.0103C27.868 18.0803 27.4381 19.1065 26.6729 19.8631C25.9078 20.6197 24.87 21.0448 23.7879 21.0448V22.6586C25.3028 22.6586 26.7557 22.0635 27.827 21.0042C28.8982 19.945 29.5 18.5083 29.5 17.0103H27.868ZM23.7879 12.9757C24.87 12.9757 25.9078 13.4008 26.6729 14.1574C27.4381 14.914 27.868 15.9402 27.868 17.0103H29.5C29.5 15.5122 28.8982 14.0756 27.827 13.0163C26.7557 11.957 25.3028 11.3619 23.7879 11.3619V12.9757ZM23.7879 11.3619C22.2729 11.3619 20.82 11.957 19.7488 13.0163C18.6776 14.0756 18.0758 15.5122 18.0758 17.0103H19.7078C19.7078 15.9402 20.1377 14.914 20.9028 14.1574C21.668 13.4008 22.7058 12.9757 23.7879 12.9757V11.3619ZM19.7078 20.2379V26.6931H21.3398V20.2379H19.7078ZM21.0134 27.3386L24.2775 24.9179L23.2983 23.6269L20.0342 26.0476L21.0134 27.3386ZM23.2983 24.9179L26.5623 27.3386L27.5416 26.0476L24.2775 23.6269L23.2983 24.9179ZM27.868 26.6931V20.2379H26.2359V26.6931H27.868ZM9.91558 11.3619H18.0758V9.74814H9.91558V11.3619ZM9.91558 16.2034H14.8117V14.5896H9.91558V16.2034Z" fill="#36C9A7"/>
<path d="M2.81582 2.78995C4.49113 1.13336 6.99804 0.5 10.2294 0.5H17.7619C20.9933 0.5 23.5002 1.13336 25.1755 2.78995C26.6271 4.22535 27.3018 6.27813 27.4561 8.87938H25.5695C25.4183 6.58232 24.8263 5.07805 23.844 4.10665C22.6946 2.97011 20.8076 2.36208 17.7619 2.36208H10.2294C7.18378 2.36208 5.29675 2.97011 4.14738 4.10665C2.99802 5.24318 2.38312 7.10912 2.38312 10.1208V17.5691C2.38312 20.5807 2.99802 22.4467 4.14738 23.5832C5.29675 24.7197 7.18378 25.3278 10.2294 25.3278H16.5065V27.1899H10.2294C6.99804 27.1899 4.49113 26.5565 2.81582 24.8999C1.14051 23.2433 0.5 20.7644 0.5 17.5691V10.1208C0.5 6.92546 1.14051 4.44655 2.81582 2.78995Z" fill="#36C9A7"/>
</svg>
