<svg width="22" height="36" viewBox="0 0 22 36" fill="none" xmlns="http://www.w3.org/2000/svg">
<path d="M6.43709 23.7934V22.0291C6.43709 20.9483 6.58808 19.9947 6.89007 19.1682C7.19205 18.3258 7.67682 17.5311 8.34437 16.7841C9.01192 16.0212 9.89404 15.2424 10.9907 14.4477C11.9762 13.7483 12.7629 13.1205 13.351 12.5642C13.955 12.0079 14.3921 11.4596 14.6623 10.9192C14.9483 10.3629 15.0914 9.7351 15.0914 9.03576C15.0914 8.00265 14.7099 7.21589 13.947 6.6755C13.1841 6.1351 12.1192 5.8649 10.7523 5.8649C9.38543 5.8649 8.02649 6.07947 6.6755 6.50861C5.3404 6.93775 3.98146 7.50199 2.59868 8.20132L0 2.98013C1.5894 2.09007 3.31391 1.37483 5.17351 0.834437C7.03311 0.278146 9.06755 0 11.2768 0C14.6781 0 17.3086 0.818543 19.1682 2.45563C21.0437 4.07682 21.9815 6.14305 21.9815 8.6543C21.9815 9.9894 21.7669 11.1497 21.3377 12.1351C20.9245 13.1046 20.2887 14.0106 19.4305 14.853C18.5881 15.6795 17.5311 16.5536 16.2596 17.4755C15.306 18.1748 14.5748 18.7629 14.0662 19.2397C13.5576 19.7166 13.2079 20.1934 13.0172 20.6702C12.8424 21.1311 12.755 21.6954 12.755 22.3629V23.7934H6.43709ZM5.67417 31.947C5.67417 30.453 6.07947 29.404 6.89007 28.8C7.71656 28.196 8.70993 27.894 9.8702 27.894C10.9987 27.894 11.9682 28.196 12.7788 28.8C13.6053 29.404 14.0185 30.453 14.0185 31.947C14.0185 33.3775 13.6053 34.4106 12.7788 35.0464C11.9682 35.6821 10.9987 36 9.8702 36C8.70993 36 7.71656 35.6821 6.89007 35.0464C6.07947 34.4106 5.67417 33.3775 5.67417 31.947Z" fill="white"/>
</svg>
