<svg width="21" height="30" viewBox="0 0 21 30" fill="none" xmlns="http://www.w3.org/2000/svg">
<path fill-rule="evenodd" clip-rule="evenodd" d="M10.004 0.666748C6.17023 0.666748 3.08398 3.76926 3.08398 7.58675C3.08398 11.3246 6.03011 14.368 9.74372 14.4929C9.78513 14.4942 9.82659 14.4931 9.86785 14.4893C9.95744 14.4812 10.0535 14.482 10.1178 14.4885C10.162 14.4929 10.2065 14.4943 10.2509 14.4929C13.9653 14.368 16.9084 11.3248 16.924 7.59092L16.924 7.58675C16.924 3.7678 13.8229 0.666748 10.004 0.666748ZM5.08398 7.58675C5.08398 4.8709 7.27774 2.66675 10.004 2.66675C12.7177 2.66675 14.9229 4.87126 14.924 7.58471C14.9119 10.2309 12.8452 12.3747 10.24 12.4918C10.0824 12.4803 9.91531 12.4809 9.75716 12.4919C7.14942 12.3761 5.08398 10.2308 5.08398 7.58675Z" fill="#0097BF"/>
<path fill-rule="evenodd" clip-rule="evenodd" d="M17.4529 17.5818C15.4268 16.2286 12.8051 15.5834 10.2342 15.5834C7.66294 15.5834 5.03616 16.2288 2.99825 17.58L2.99458 17.5824C1.17412 18.8011 0.130859 20.5033 0.130859 22.3317C0.130859 24.1604 1.1744 25.8597 2.99577 27.0719C5.02792 28.4312 7.6525 29.0801 10.2242 29.0801C12.7963 29.0801 15.4213 28.431 17.4536 27.0712C19.2741 25.8525 20.3175 24.1502 20.3175 22.3217C20.3175 20.4932 19.2741 18.794 17.4529 17.5818ZM2.13086 22.3317C2.13086 21.3239 2.70044 20.1867 4.10533 19.2456C5.74723 18.1576 7.9663 17.5834 10.2342 17.5834C12.5033 17.5834 14.7149 18.1582 16.3421 19.245L16.3436 19.246C17.7482 20.1804 18.3175 21.3141 18.3175 22.3217C18.3175 23.33 17.7474 24.4677 16.3412 25.4091C14.7069 26.5026 12.492 27.0801 10.2242 27.0801C7.9563 27.0801 5.74133 26.5025 4.10696 25.409L4.10477 25.4075C2.7002 24.4731 2.13086 23.3393 2.13086 22.3317Z" fill="#0097BF"/>
</svg>
